# xmcd
#
# Track frame offsets:
#	150
#	13912
#	27383
#	37776
#	47557
#	57798
#	69706
#	82498
#	95412
#	107836
#	118669
#	131183
#	142630
#	154028
#	167920
#	180033
#
# Disc length: 2582 seconds
#
# Revision: 0
# Processed by: cddbd v1.5.2PL0 Copyright (c) Steve Scherf et al.
# Submitted via: EasyCDDAExtractor 16.0.6.1
#
DISCID=d20a1410
DTITLE=Μενιδιάτης Μιχάλης - Οι μεγάλες επιτυχίες-Μενιδιάτης Μιχάλης
DYEAR=1995
DGENRE=Λαϊκή
TTITLE0=Ο ψαράς
TTITLE1=Νά 'χα καρδιά να μην πονάει
TTITLE2=Ούτε ώρα αναβολή
TTITLE3=Απόψε έβαλα φωτιά (να κάψω την καρδιά μου)
TTITLE4=Πονεμένα βράδια
TTITLE5=Τουμπαράς
TTITLE6=Πού πήγαν τόσοι άνθρωποι
TTITLE7=Παγωμένα σίδερα
TTITLE8=Τη ζωή μου χάλασες
TTITLE9=Έπεσα έξω
TTITLE10=Εξ αιτίας σου
TTITLE11=Ο ψύλλος
TTITLE12=Καινούργιο χτύπημα
TTITLE13=Αν δεν υπήρχαν σταυροδρόμια
TTITLE14=Κάθε πίκρα να σβήσει
TTITLE15=Τι συμβαίνει πάλι (Το σίριαλ)
EXTD=
EXTT0=
EXTT1=
EXTT2=
EXTT3=
EXTT4=
EXTT5=
EXTT6=
EXTT7=
EXTT8=
EXTT9=
EXTT10=
EXTT11=
EXTT12=
EXTT13=
EXTT14=
EXTT15=
PLAYORDER=
